<svg width="48" height="48" viewBox="0 0 48 48" fill="none" xmlns="http://www.w3.org/2000/svg">
<path d="M25.3051 32.7295C26.3561 33.7701 26.3561 35.4573 25.3051 36.4979L16.1115 44.9257C16.0599 44.973 16.0305 45.0399 16.0305 45.11V47.75C16.0305 47.8881 15.9186 48 15.7805 48H7.11144C6.88761 48 6.77658 47.7284 6.93629 47.5716L10.8497 43.7291C10.9408 43.6397 10.9498 43.4961 10.8716 43.3951C7.83633 39.475 6.03006 34.5563 6.03006 29.2159C6.03006 25.2959 7.0033 21.6031 8.72147 18.3656C9.14389 17.5697 10.21 17.4514 10.8474 18.0884L14.1173 21.3563C14.5445 21.7833 14.6453 22.433 14.4109 22.9896C13.6047 24.9044 13.159 27.0082 13.159 29.2159C13.159 32.623 14.2203 35.7823 16.0305 38.3818L21.4991 32.7295C22.5501 31.6888 24.2541 31.6888 25.3051 32.7295Z" fill="#FFFDE3"/>
<path d="M35.9373 25.7023C34.8863 26.743 33.1822 26.743 32.1312 25.7023C31.0802 24.6617 31.0802 22.9746 32.1312 21.9339L38.0704 15.7943C35.5349 14.1235 32.4979 13.1511 29.2336 13.1511C26.8814 13.1511 24.6472 13.656 22.6336 14.5633C22.07 14.8172 21.4012 14.7228 20.964 14.2859L17.7223 11.0462C17.0922 10.4165 17.1991 9.36517 17.978 8.93257C21.3115 7.081 25.1493 6.02641 29.2336 6.02641C34.3548 6.02641 39.0886 7.68452 42.9267 10.4929C43.02 10.5612 43.1481 10.5577 43.2368 10.4835L47.5896 6.8432C47.7524 6.7071 48 6.82282 48 7.03498V15.75C48 15.8881 47.8881 16 47.75 16H45.1086C45.0393 16 44.9732 16.0287 44.9259 16.0793L35.9373 25.7023Z" fill="#FFFDE3"/>
<path d="M14.0019 3.59964L0.888919 0.0255368C0.364028 -0.117529 -0.117601 0.363812 0.0255529 0.888387L3.60184 13.9934C3.7439 14.514 4.39564 14.6869 4.7774 14.3054L7.41134 11.6731C7.68594 11.3986 8.13114 11.3986 8.40573 11.6731L35.0186 38V42.5L40 46.5L40.5 40.5L46.5 40L42.5 35H38L11.3889 8.6917C11.1143 8.41727 11.1143 7.97234 11.3889 7.69791L14.3141 4.77448C14.6958 4.39296 14.5228 3.7416 14.0019 3.59964Z" fill="#FFFDE3"/>
</svg>
