<svg width="27" height="27" viewBox="0 0 27 27" fill="none" xmlns="http://www.w3.org/2000/svg">
<path fill-rule="evenodd" clip-rule="evenodd" d="M13.4109 26.4017C20.5906 26.4017 26.4109 20.5814 26.4109 13.4017C26.4109 6.22197 20.5906 0.401672 13.4109 0.401672C6.23119 0.401672 0.410889 6.22197 0.410889 13.4017C0.410889 20.5814 6.23119 26.4017 13.4109 26.4017ZM13.4109 22.1517C18.2434 22.1517 22.1609 18.2342 22.1609 13.4017C22.1609 8.56918 18.2434 4.65167 13.4109 4.65167C8.5784 4.65167 4.66089 8.56918 4.66089 13.4017C4.66089 18.2342 8.5784 22.1517 13.4109 22.1517Z" fill="#FFE100"/>
<path d="M17.9109 13.4017C17.9109 15.887 15.8962 17.9017 13.4109 17.9017C10.9256 17.9017 8.91089 15.887 8.91089 13.4017C8.91089 10.9164 10.9256 8.90167 13.4109 8.90167C15.8962 8.90167 17.9109 10.9164 17.9109 13.4017Z" fill="#FFE100"/>
</svg>
