<svg width="48" height="40" viewBox="0 0 48 40" fill="none" xmlns="http://www.w3.org/2000/svg">
<path d="M36.9717 8.7013L31.5415 0.522079C31.3104 0.232036 30.9638 0 30.6172 0H16.8106C16.464 0 16.0596 0.174027 15.8863 0.522079L10.3983 8.7013H1.09761C0.46216 8.7013 0 9.22338 0 9.80346V38.8658C0 39.5039 0.519928 39.968 1.09761 39.968H46.2146C46.85 39.968 47.3122 39.4459 47.3122 38.8658V9.80346C47.3122 9.16537 46.7923 8.7013 46.2146 8.7013H36.9717ZM23.685 34.2251C17.6193 34.2251 12.709 29.2944 12.709 23.2035C12.709 17.1126 17.6193 12.1818 23.685 12.1818C29.7506 12.1818 34.6609 17.1126 34.6609 23.2035C34.6609 29.2944 29.7506 34.2251 23.685 34.2251ZM8.2031 6.38095H1.502C0.982081 6.38095 0.577682 6.0329 0.577682 5.56883V4.98874C0.577682 2.90043 2.42629 1.21818 4.79479 1.21818H9.87839C11.1493 1.21818 11.8425 2.49437 11.0915 3.42251L8.95408 6.09091C8.78077 6.26493 8.49194 6.38095 8.2031 6.38095ZM31.1948 23.2035C31.1948 27.3801 27.8443 30.7446 23.685 30.7446C19.5257 30.7446 16.1751 27.3801 16.1751 23.2035C16.1751 19.0268 19.5257 15.6623 23.685 15.6623C27.8443 15.6623 31.1948 19.0268 31.1948 23.2035Z" fill="#A9BE00"/>
</svg>
