<svg width="60" height="38" viewBox="0 0 60 38" fill="none" xmlns="http://www.w3.org/2000/svg">
<path d="M50.604 20.1664C46.0998 19.7776 42.191 22.7325 41.1555 26.8539L41.1037 27.1131H40.8449C40.6895 27.1131 40.5601 26.9835 40.5601 26.828V21.3846C40.5601 20.5811 40.8707 19.8035 41.4144 19.2073L42.191 18.3778C42.7863 17.7298 43.6406 17.341 44.5207 17.341H50.4746C51.0959 17.341 51.7171 17.0818 52.1572 16.6411L59.8196 8.94267C60.2079 8.55386 59.9231 7.93176 59.4054 7.93176H46.048L45.9445 7.854C45.2197 7.2319 44.1324 7.25782 43.4335 7.93176L40.4048 10.8867H31.241C30.3868 10.8867 29.5843 10.5498 28.9889 9.92766C27.2545 8.11321 23.501 4.25101 21.7666 2.66984C19.9028 0.98499 19.4886 0 15.1656 0C10.8167 0 7.19259 3.8622 7.39968 7.33558C7.42557 7.87992 7.52911 8.94267 7.32202 9.40925C7.21847 9.64253 6.70075 10.135 6.28656 10.4979C6.05359 10.7053 6.07947 11.0682 6.33834 11.2237C6.90784 11.5607 7.81386 12.105 8.40925 12.5716C8.77166 12.8567 9.21172 13.4529 8.97875 13.9713C8.74577 14.4897 7.96918 14.5156 7.47734 14.5156C7.01138 14.5156 3.23197 14.5156 1.52347 14.5156C1.13518 14.5156 0.746882 14.6971 0.488019 14.9822L0.12561 15.3969C-0.15914 15.708 0.0738369 16.2005 0.488019 16.2264C3.12843 16.2523 13.1465 16.2264 13.1465 16.2264L14.2855 17.1855C14.5961 17.4188 14.9844 17.4965 15.3468 17.3669L15.8645 17.1855C16.2528 17.0559 16.5635 16.693 16.6152 16.2783L16.667 15.9413C16.7188 15.6043 16.5893 15.2414 16.3564 14.9822L15.1138 13.738C14.8291 13.4529 15.0103 12.9604 15.4245 12.9345H15.5539C16.0198 12.9086 16.4599 13.09 16.7964 13.401L20.8606 17.6261C21.7666 18.5593 21.7148 20.0368 20.7829 20.9181L19.6698 22.0586C19.3851 22.3437 18.9191 22.3696 18.6344 22.0845L16.9776 20.4774C16.3564 19.8812 15.4245 19.8553 14.7514 20.3737C14.6996 20.4256 14.6479 20.4515 14.5961 20.5033C14.2855 20.7626 13.8713 20.8144 13.483 20.6589C12.3699 20.2441 11.1791 20.0368 9.91066 20.1145C5.277 20.3737 1.54936 24.21 1.44581 28.8498C1.34227 33.9044 5.40643 38.0258 10.4543 37.9999C14.9844 37.948 18.8415 34.4487 19.2556 29.9126C19.3592 28.9276 19.2815 27.9426 19.0744 27.0354C18.9191 26.4133 19.1521 25.7393 19.6698 25.3246C19.8769 25.1691 20.084 24.9876 20.2911 24.8321C20.8347 24.4174 21.6113 24.4692 22.0772 24.9876L24.8989 28.0463C25.2872 28.461 25.8049 28.6943 26.3744 28.6943H32.7942C32.9754 28.6943 33.1566 28.7462 33.3378 28.8239L33.5708 28.9276C33.752 29.0054 33.9332 29.0572 34.1144 29.0572H40.8966C40.8966 33.9822 44.8831 37.9999 49.8274 37.9999C54.9529 37.9999 59.0947 33.6452 58.7323 28.4351C58.3958 24.0804 54.927 20.5293 50.604 20.1664ZM10.3766 32.5824C8.43513 32.5824 6.85606 31.0013 6.85606 29.0572C6.85606 27.1131 8.43513 25.532 10.3766 25.532C12.3181 25.532 13.8972 27.1131 13.8972 29.0572C13.8972 31.0013 12.3181 32.5824 10.3766 32.5824ZM38.0491 27.1131H36.5218C36.3665 27.1131 36.2371 26.9835 36.2371 26.828V25.9726C36.2371 25.2468 36.5218 24.547 37.0396 24.0545L37.7126 23.4065C37.9197 23.1991 38.2821 23.3546 38.2821 23.6398V26.828C38.3339 26.9835 38.2045 27.1131 38.0491 27.1131ZM49.8015 32.5824C47.8601 32.5824 46.281 31.0013 46.281 29.0572C46.281 27.1131 47.8601 25.532 49.8015 25.532C51.743 25.532 53.3221 27.1131 53.3221 29.0572C53.3221 31.0013 51.743 32.5824 49.8015 32.5824Z" fill="#FFAC00"/>
</svg>
