<svg width="40" height="48" viewBox="0 0 40 48" fill="none" xmlns="http://www.w3.org/2000/svg">
<path d="M1.28125e-10 26C-9.23934e-06 24 0.499878 12 10.5 12C15.6837 12 16.4803 15.0161 16.5448 16.5813C16.5662 17.1021 16.1003 17.46 15.5817 17.4082L12.9181 17.1418C12.4478 17.0948 12.1775 17.6697 12.5134 18.0022C14.7125 20.1798 16.0126 21.3213 20 21.5C23.9874 21.3213 25.2875 20.1798 27.4866 18.0022C27.8225 17.6697 27.5522 17.0948 27.0819 17.1418L24.4183 17.4082C23.8997 17.46 23.4338 17.1021 23.4552 16.5813C23.5197 15.0161 24.3163 12 29.5 12C39.5001 12 40 24 40 26C40 36.5 33 48 25 48C23.5633 48 22.9538 47.9707 22.5872 47.8444C21.7382 47.5519 21.0117 47 20.1137 47H19.8863C18.9883 47 18.2618 47.5519 17.4128 47.8444C17.0462 47.9707 16.4367 48 15 48C7 48 1.28125e-10 36.5 1.28125e-10 26Z" fill="#FFFDE3"/>
<path d="M21.5 14.5C21.8905 14.8905 22.0858 15.4024 22.0858 15.9142C22.0858 16.4261 21.8905 16.9379 21.5 17.3284C20.7189 18.1095 19.4526 18.1095 18.6716 17.3284C18.2809 16.9378 18.0857 16.4258 18.0858 15.9138C18.0859 15.4021 18.2811 14.8904 18.6716 14.5C19.4526 13.719 20.7189 13.719 21.5 14.5Z" fill="#FFFDE3"/>
<path d="M18.6716 14.5C19.4526 13.719 20.7189 13.719 21.5 14.5C21.8905 14.8905 22.0858 15.4024 22.0858 15.9142C22.0872 10.5037 22.2571 7.00339 23.0494 4.62206C22.6658 4.86158 22.2126 5 21.727 5C20.3463 5 19.227 3.88071 19.227 2.5C19.227 2.36038 19.2385 2.22343 19.2605 2.09004C17.7649 5.46694 17.7234 12.0483 18.0858 15.9138C18.0859 15.4021 18.2811 14.8904 18.6716 14.5Z" fill="#FFFDE3"/>
<path fill-rule="evenodd" clip-rule="evenodd" d="M21.727 0C22.573 0 23.3208 0.420171 23.7732 1.06321C24.3402 1.86927 23.8137 2.88503 23.3886 3.77417C23.2623 4.03832 23.1497 4.32053 23.0494 4.62206C22.6658 4.86158 22.2126 5 21.727 5C20.3463 5 19.227 3.88071 19.227 2.5C19.227 2.36038 19.2385 2.22343 19.2605 2.09004C19.8284 0.807841 20.6262 0 21.727 0Z" fill="#FFFDE3"/>
<path d="M15.9905 8.49568C15.7201 1.41979 9.6927 1.01748 3.06657 1.00064C2.76582 0.999878 2.53268 1.26743 2.58005 1.56443C3.73674 8.81734 8.90573 8.99551 15.4992 8.99989C15.7753 9.00007 16.0011 8.77162 15.9905 8.49568Z" fill="#FFFDE3"/>
</svg>
