<svg width="44" height="44" viewBox="0 0 44 44" fill="none" xmlns="http://www.w3.org/2000/svg">
<path d="M0 43.2667V35.9333C0 35.5283 0.317733 35.2 0.709677 35.2H4.96774L9.22581 30.0667L3.9069 23.8834C3.67596 23.615 3.54839 23.2682 3.54839 22.909V19.0667C3.54839 18.2566 4.18385 17.6 4.96774 17.6H9.64153C10.1958 17.6 10.6452 18.0643 10.6452 18.6371C10.6452 18.9121 10.5394 19.1759 10.3512 19.3704L8.51613 21.2667L22.7097 36.6667L25.2544 34.0371C25.4426 33.8426 25.6979 33.7333 25.9641 33.7333C26.5184 33.7333 26.9677 34.1977 26.9677 34.7704V39.6C26.9677 40.41 26.3323 41.0667 25.5484 41.0667H20.4106C20.063 41.0667 19.7275 40.9348 19.4676 40.6962L13.4839 35.2L8.51613 38.8667V43.2667C8.51613 43.6717 8.1984 44 7.80645 44H0.709677C0.317733 44 0 43.6717 0 43.2667Z" fill="#FFFDE3"/>
<path d="M13.4839 22L34.0645 0H44V10.2667L22 30.8L18.4516 27.1333L31.03 14.6667L35.4839 8.8L29.6107 13.2L17.0323 25.6667L13.4839 22Z" fill="#FFFDE3"/>
</svg>
