<svg width="51" height="56" viewBox="0 0 51 56" fill="none" xmlns="http://www.w3.org/2000/svg">
<path d="M25.5 0L0.5 25.5L15 39.5V50.5L20.5 56V38L7.5 25L25.5 7L43.5 25L30.5 38V56L36 50.5V39.5L50.5 25.5L25.5 0Z" fill="#FFFDE3"/>
<path fill-rule="evenodd" clip-rule="evenodd" d="M28.4999 46.1432H22.4999V42.1432H28.4999V46.1432ZM31.4909 34.1806L37.0119 28.6596C34.3924 23.7708 31.4658 18.5474 29.1609 14.6432C28.5705 13.6432 27.6609 13.1432 25.6609 13.1432C23.6609 13.1432 22.7513 13.6432 22.1609 14.6432C19.823 18.6033 16.8455 23.9206 14.1976 28.8693L19.7473 34.419C21.2696 29.9572 24.0331 28.6432 25.6609 28.6432C27.2594 28.6432 29.9529 29.9103 31.4909 34.1806Z" fill="#FFFDE3"/>
<path d="M7.66089 42.6432C7.66089 44.2944 8.56976 45.3776 9.26193 45.8928C9.511 46.0781 9.82253 46.1432 10.133 46.1432H12.9999V40.3491L9.84966 37.3074C8.51169 40.0557 7.66089 42.0501 7.66089 42.6432Z" fill="#FFFDE3"/>
<path d="M42.0598 45.8928C42.752 45.3776 43.6609 44.2944 43.6609 42.6432C43.6609 42.035 42.7662 39.9533 41.369 37.0961L37.9999 40.3491V46.1432H41.1888C41.4992 46.1432 41.8108 46.0781 42.0598 45.8928Z" fill="#FFFDE3"/>
</svg>
