<svg width="41" height="47" viewBox="0 0 41 47" fill="none" xmlns="http://www.w3.org/2000/svg">
<path fill-rule="evenodd" clip-rule="evenodd" d="M40.5 47V17.5L38 15.5L40.5 13.5V10L38 8L40.5 6V0H0.5V31L3.5 33.5L0.5 36V47H40.5ZM7.5 18.5V22H19V18.5H7.5ZM33.5 18.5V22H22V18.5H33.5ZM9.5 29V25.5H14V29H9.5ZM31.5 29V25.5H18V29H31.5ZM7.5 36.5V33H24V36.5H7.5ZM33.5 36.5V33H27V36.5H33.5ZM21.2071 6.20711C20.8166 5.81658 20.1834 5.81658 19.7929 6.20711L17.7071 8.29289C17.3166 8.68342 17.3166 9.31658 17.7071 9.70711L19.7929 11.7929C20.1834 12.1834 20.8166 12.1834 21.2071 11.7929L23.2929 9.70711C23.6834 9.31658 23.6834 8.68342 23.2929 8.29289L21.2071 6.20711Z" fill="#FFFDE3"/>
</svg>
