<svg width="58" height="60" viewBox="0 0 58 60" fill="none" xmlns="http://www.w3.org/2000/svg">
<path d="M32.9452 60H25.0548C24.7582 60 24.5267 59.7432 24.5575 59.4482L26.8827 37.1263C26.9078 36.8852 26.7555 36.6625 26.5267 36.5826C23.5998 35.5606 21.5 32.7755 21.5 29.5C21.5 25.3579 24.8579 22 29 22C33.1421 22 36.5 25.3579 36.5 29.5C36.5 32.7755 34.4002 35.5606 31.4733 36.5826C31.2445 36.6625 31.0922 36.8852 31.1173 37.1263L33.4425 59.4482C33.4733 59.7432 33.2418 60 32.9452 60Z" fill="#46D48F"/>
<path fill-rule="evenodd" clip-rule="evenodd" d="M58 29.5C58 32.703 57.4193 35.8232 56.361 38.7576C56.2337 39.1106 55.7763 39.1893 55.518 38.9171C54.821 38.1828 54.2108 37.7082 53.2374 37.1946C53.0194 37.0795 52.9105 36.8266 52.9803 36.5901C53.6439 34.3424 54 31.9628 54 29.5C54 15.6929 42.8071 4.5 29 4.5C15.1929 4.5 4 15.6929 4 29.5C4 39.9501 10.4118 48.9027 19.5159 52.6383C19.9776 52.8277 20.2474 53.3175 20.1404 53.8049L19.7364 55.6452C19.6062 56.2386 18.9805 56.5808 18.4198 56.3467C7.84822 51.9322 0 41.275 0 29.5C0 14.036 13.536 0.5 29 0.5C44.464 0.5 58 14.036 58 29.5ZM23.2423 39.6741C23.3348 39.2528 23.1439 38.8233 22.7881 38.5794C19.8968 36.5974 18 33.2702 18 29.5C18 23.4249 22.9249 18.5 29 18.5C35.0751 18.5 40 23.4249 40 29.5C40 33.2702 38.1032 36.5974 35.2119 38.5794C34.8561 38.8233 34.6652 39.2528 34.7577 39.6741L35.2224 41.7908C35.3607 42.4212 36.0523 42.7579 36.6082 42.4301C41.032 39.8214 44 35.0073 44 29.5C44 21.2157 37.2843 14.5 29 14.5C20.7157 14.5 14 21.2157 14 29.5C14 35.0073 16.968 39.8214 21.3918 42.4301C21.9477 42.7578 22.6393 42.4212 22.7776 41.7908L23.2423 39.6741ZM11 29.5C11 36.6073 15.1192 42.7525 21.1005 45.6785C21.5302 45.8887 21.7745 46.3605 21.6719 46.8278L21.2286 48.8475C21.0968 49.448 20.4583 49.7896 19.8987 49.535C12.29 46.0731 7 38.4043 7 29.5C7 17.3497 16.8497 7.5 29 7.5C41.1503 7.5 51 17.3497 51 29.5C51 32.0102 50.5796 34.4223 49.8053 36.6695C49.7368 36.8685 49.5484 37 49.3379 37H46.1475C45.7831 37 45.5401 36.6221 45.6775 36.2846C46.5302 34.1908 47 31.9002 47 29.5C47 19.5589 38.9411 11.5 29 11.5C19.0589 11.5 11 19.5589 11 29.5Z" fill="#46D48F"/>
<path d="M57.5 48V53H50.5V60H45.5V53H38.5V48H45.5V41H50.5V48H57.5Z" fill="#46D48F"/>
</svg>
