<svg width="46" height="50" viewBox="0 0 46 50" fill="none" xmlns="http://www.w3.org/2000/svg">
<path fill-rule="evenodd" clip-rule="evenodd" d="M23 0C16.975 3.75587 4.05736 11.2676 0.586951 11.2676C-0.13605 22.3005 3.33436 45.493 23 50C42.6656 45.493 46.1361 22.3005 45.413 11.2676C41.9426 11.2676 29.025 3.75587 23 0ZM4.7894 13.5563C7.6091 13.5563 18.1047 7.29656 23 4.16667C27.8953 7.29656 38.3909 13.5563 41.2106 13.5563C41.798 22.7504 38.9783 42.0775 23 45.8333C7.02167 42.0775 4.20196 22.7504 4.7894 13.5563ZM23 8.33333C19.2344 10.8372 11.1609 15.8451 8.99185 15.8451C8.53997 23.2003 10.709 38.662 23 41.6667C35.291 38.662 37.46 23.2003 37.0082 15.8451C34.8391 15.8451 26.7656 10.8372 23 8.33333Z" fill="#FFFDE3"/>
</svg>
